<?xml version="1.0" encoding="utf-8"?>
<!-- Generator: Adobe Illustrator 27.5.0, SVG Export Plug-In . SVG Version: 6.00 Build 0)  -->
<svg version="1.1" id="Layer_1" xmlns="http://www.w3.org/2000/svg" xmlns:xlink="http://www.w3.org/1999/xlink" x="0px" y="0px"
	 viewBox="0 0 190 42" style="enable-background:new 0 0 190 42;" xml:space="preserve">
<style type="text/css">
	.st0{fill:#FFFFFF;}
</style>
<path class="st0" d="M56.3,32.6h1V40h3.3v1h-4.3V32.6z M61.6,32.6h1v5.6c0,0.4,0.1,0.7,0.2,1c0.1,0.3,0.4,0.5,0.6,0.7
	c0.3,0.2,0.6,0.2,1,0.2s0.7-0.1,1-0.2c0.3-0.2,0.5-0.4,0.6-0.7c0.1-0.3,0.2-0.6,0.2-1v-5.6h1v5.6c0,0.4-0.1,0.8-0.2,1.2
	c-0.1,0.4-0.3,0.7-0.6,0.9c-0.2,0.3-0.5,0.5-0.9,0.6s-0.7,0.2-1.2,0.2s-0.8-0.1-1.2-0.2c-0.4-0.1-0.7-0.3-0.9-0.6
	c-0.2-0.3-0.4-0.6-0.6-0.9c-0.1-0.4-0.2-0.7-0.2-1.2V32.6z M73.4,32.6h1.2l-2.5,4l2.7,4.4h-1.2l-2-3.5l-2,3.5h-1.2l2.7-4.4l-2.4-4
	h1.2l1.8,3.1L73.4,32.6z M75.8,32.6h1v5.6c0,0.4,0.1,0.7,0.2,1c0.1,0.3,0.4,0.5,0.6,0.7c0.3,0.2,0.6,0.2,1,0.2s0.7-0.1,1-0.2
	c0.3-0.2,0.5-0.4,0.6-0.7c0.1-0.3,0.2-0.6,0.2-1v-5.6h1v5.6c0,0.4-0.1,0.8-0.2,1.2c-0.1,0.4-0.3,0.7-0.6,0.9
	c-0.2,0.3-0.5,0.5-0.9,0.6s-0.7,0.2-1.2,0.2s-0.8-0.1-1.2-0.2c-0.4-0.1-0.7-0.3-0.9-0.6c-0.2-0.3-0.4-0.6-0.6-0.9
	c-0.1-0.4-0.2-0.7-0.2-1.2V32.6z M84.8,36.9H86l3,4.1h-1.3L84.8,36.9z M83.3,32.6h1V41h-1V32.6z M83.9,33.5v-0.9h1.7
	c0.5,0,1,0.1,1.5,0.3c0.4,0.2,0.8,0.5,1,0.9c0.3,0.4,0.4,0.8,0.4,1.3c0,0.5-0.1,1-0.4,1.3c-0.2,0.4-0.6,0.7-1,0.9
	c-0.4,0.2-0.9,0.3-1.5,0.3h-1.7v-0.9h1.7c0.4,0,0.7-0.1,0.9-0.2c0.3-0.1,0.5-0.3,0.6-0.6c0.2-0.2,0.2-0.5,0.2-0.9
	c0-0.3-0.1-0.6-0.2-0.9c-0.2-0.2-0.4-0.4-0.6-0.6c-0.3-0.1-0.6-0.2-0.9-0.2H83.9z M94.6,32.6h1.1L93,37.4V41h-1v-3.6l-2.8-4.8h1.1
	l2.2,3.9L94.6,32.6z M100.9,36.9v-1h5.8v1H100.9z M106,32.6h1V41h-1V32.6z M100.4,32.6h1V41h-1V32.6z M109.6,36.8
	c0,0.5,0.1,0.9,0.2,1.3c0.2,0.4,0.4,0.7,0.7,1c0.3,0.3,0.6,0.5,1,0.7c0.4,0.2,0.8,0.2,1.3,0.2c0.5,0,0.9-0.1,1.3-0.2
	c0.4-0.2,0.7-0.4,1-0.7c0.3-0.3,0.5-0.6,0.7-1c0.2-0.4,0.2-0.8,0.2-1.3s-0.1-0.9-0.2-1.3c-0.2-0.4-0.4-0.8-0.7-1.1
	c-0.3-0.3-0.6-0.5-1-0.7c-0.4-0.2-0.8-0.3-1.3-0.3c-0.5,0-0.9,0.1-1.3,0.3c-0.4,0.2-0.7,0.4-1,0.7c-0.3,0.3-0.5,0.6-0.7,1.1
	C109.6,35.9,109.6,36.3,109.6,36.8z M108.5,36.8c0-0.6,0.1-1.2,0.3-1.7c0.2-0.5,0.5-1,0.9-1.4c0.4-0.4,0.8-0.7,1.4-0.9
	c0.5-0.2,1.1-0.3,1.7-0.3c0.6,0,1.2,0.1,1.7,0.3c0.5,0.2,1,0.5,1.4,0.9c0.4,0.4,0.7,0.8,0.9,1.4c0.2,0.5,0.3,1.1,0.3,1.7
	c0,0.6-0.1,1.2-0.3,1.7c-0.2,0.5-0.5,1-0.9,1.4c-0.4,0.4-0.8,0.7-1.4,0.9c-0.5,0.2-1.1,0.3-1.7,0.3c-0.6,0-1.2-0.1-1.7-0.3
	c-0.5-0.2-1-0.5-1.4-0.9c-0.4-0.4-0.7-0.9-0.9-1.4C108.6,38,108.5,37.4,108.5,36.8z M117.2,33.6v-1h5.3v1h-2.2V41h-1v-7.4H117.2z
	 M124.2,41v-1h4.2v1H124.2z M124.2,33.6v-1h4.2v1H124.2z M124.2,36.9v-1h4v1H124.2z M123.7,32.6h1V41h-1V32.6z M130.3,32.6h1V40h3.3
	v1h-4.3V32.6z"/>
<g>
	<path class="st0" d="M40.2,22.6c-0.3,0.4-0.6,0.6-1.1,0.9c-0.4,0.2-0.9,0.4-1.5,0.5s-1.1,0.2-1.6,0.2h-3v0c0.2-0.1,0.4-0.1,0.5-0.2
		c0.1-0.1,0.2-0.1,0.2-0.3c0-0.1,0.1-0.3,0.1-0.5v-8.3c0-0.2,0-0.4-0.1-0.5c0-0.1-0.1-0.2-0.2-0.3c-0.1-0.1-0.3-0.1-0.5-0.2v0h3
		c0.8,0,1.5,0.1,2.2,0.3c0.6,0.2,1.1,0.4,1.5,0.8c0.3,0.3,0.5,0.8,0.5,1.3c0,0.5-0.2,0.9-0.5,1.3c-0.3,0.3-0.7,0.6-1.2,0.8
		s-1,0.3-1.6,0.3c0.7,0,1.4,0.1,2,0.3c0.6,0.2,1,0.5,1.3,0.9s0.5,0.8,0.5,1.4C40.6,21.8,40.5,22.2,40.2,22.6z M38.5,15.2
		c-0.2-0.4-0.5-0.6-0.9-0.9s-1-0.3-1.7-0.4l-0.7,0v4.7l1.3,0c0.7,0,1.2-0.2,1.6-0.6c0.4-0.4,0.6-0.9,0.6-1.7
		C38.8,16,38.7,15.6,38.5,15.2z M38.8,20c-0.2-0.4-0.5-0.7-0.9-0.9c-0.4-0.2-0.8-0.4-1.4-0.4l-1.3,0v5.4l0.7,0c1,0,1.8-0.3,2.4-0.8
		c0.5-0.5,0.8-1.1,0.8-2C39.1,20.8,39,20.4,38.8,20z"/>
	<path class="st0" d="M43.8,23.6c0,0.1,0.1,0.2,0.2,0.3c0.1,0.1,0.3,0.1,0.5,0.2v0h-3v0c0.2-0.1,0.4-0.1,0.5-0.2
		c0.1-0.1,0.2-0.1,0.2-0.3c0-0.1,0.1-0.3,0.1-0.5v-8.3c0-0.2,0-0.4-0.1-0.5c0-0.1-0.1-0.2-0.2-0.3c-0.1-0.1-0.3-0.1-0.5-0.2v0h3v0
		c-0.2,0-0.4,0.1-0.5,0.2c-0.1,0.1-0.2,0.1-0.2,0.3c0,0.1-0.1,0.3-0.1,0.5v8.3C43.7,23.4,43.8,23.5,43.8,23.6z"/>
	<path class="st0" d="M52.1,17.8c-0.2,0.3-0.4,0.6-0.8,0.8c-0.3,0.2-0.7,0.4-1.1,0.5v-0.2l1.7,3.3c0.3,0.5,0.5,0.9,0.7,1.2
		c0.2,0.3,0.3,0.4,0.4,0.5c0.1,0.1,0.3,0.2,0.4,0.2v0h-2L49,19.3h-1.5v4c0,0.2,0,0.3,0.1,0.4c0,0.1,0.1,0.2,0.2,0.2
		c0.1,0.1,0.3,0.1,0.5,0.2v0h-3v0c0.2-0.1,0.4-0.1,0.5-0.2c0.1-0.1,0.2-0.2,0.2-0.3c0-0.1,0.1-0.3,0.1-0.5v-8.3c0-0.2,0-0.4-0.1-0.5
		c0-0.1-0.1-0.2-0.2-0.3c-0.1-0.1-0.3-0.1-0.5-0.1v0h3c0.9,0,1.7,0.1,2.3,0.3s1.1,0.5,1.4,0.9c0.3,0.4,0.5,0.9,0.5,1.4
		C52.4,17.1,52.3,17.4,52.1,17.8z M50.7,15.4c-0.2-0.4-0.5-0.7-0.9-1c-0.4-0.3-1-0.4-1.7-0.4l-0.7,0v5.2l0.9,0
		c0.7,0,1.4-0.2,1.8-0.7c0.5-0.4,0.7-1,0.7-1.8C50.9,16.3,50.8,15.8,50.7,15.4z"/>
	<path class="st0" d="M62.4,21.2c-0.3,0.7-0.8,1.2-1.4,1.6c-0.6,0.4-1.3,0.7-2,1c-0.8,0.2-1.6,0.3-2.5,0.3h-2.8v0
		c0.2-0.1,0.4-0.1,0.5-0.2c0.1-0.1,0.2-0.1,0.2-0.3c0-0.1,0.1-0.3,0.1-0.5v-8.3c0-0.2,0-0.4-0.1-0.5c0-0.1-0.1-0.2-0.2-0.3
		c-0.1-0.1-0.3-0.1-0.5-0.2v0h2.8c1.3,0,2.4,0.2,3.4,0.5c1,0.4,1.7,0.9,2.2,1.6s0.8,1.6,0.8,2.7C62.9,19.7,62.7,20.5,62.4,21.2z
		 M60.8,16.4c-0.4-0.7-0.9-1.3-1.7-1.7s-1.6-0.6-2.7-0.7l-0.4,0v10.1l0.4,0c1.1,0,2-0.3,2.7-0.7c0.7-0.4,1.3-1,1.7-1.7
		c0.4-0.7,0.6-1.6,0.6-2.7C61.3,18,61.1,17.1,60.8,16.4z"/>
	<path class="st0" d="M63.2,14.6c-0.1-0.2-0.3-0.3-0.4-0.4c-0.1-0.1-0.3-0.1-0.4-0.2v0h3.3v0c-0.2,0-0.4,0.1-0.5,0.2
		C65,14.3,65,14.5,65,14.7c0,0.2,0.1,0.5,0.2,0.8l2.1,6.8l1.9-6.5c0.1-0.5,0.2-0.8,0.2-1c0-0.2-0.1-0.4-0.2-0.5
		c-0.1-0.1-0.3-0.2-0.6-0.2v0h3v0c-0.2,0-0.4,0.1-0.5,0.2c-0.1,0.1-0.1,0.2-0.1,0.4s0.1,0.5,0.2,0.9l2,6.7L75,16
		c0.1-0.5,0.2-0.9,0.3-1.2c0-0.3,0-0.5-0.1-0.6c-0.1-0.1-0.3-0.2-0.7-0.3v0h2.1v0c-0.2,0-0.4,0.1-0.5,0.2s-0.3,0.3-0.4,0.6
		c-0.1,0.3-0.3,0.7-0.5,1.2l-2.7,8h-0.2l-2.9-9.3h0.2l-3,9.3h-0.2l-2.8-8.6C63.5,15.1,63.4,14.8,63.2,14.6z"/>
	<path class="st0" d="M79.1,23.6c0,0.1,0.1,0.2,0.2,0.3c0.1,0.1,0.3,0.1,0.5,0.2v0h-3v0c0.2-0.1,0.4-0.1,0.5-0.2
		c0.1-0.1,0.2-0.1,0.2-0.3c0-0.1,0.1-0.3,0.1-0.5v-8.3c0-0.2,0-0.4-0.1-0.5c0-0.1-0.1-0.2-0.2-0.3c-0.1-0.1-0.3-0.1-0.5-0.2v0h3v0
		c-0.2,0-0.4,0.1-0.5,0.2c-0.1,0.1-0.2,0.1-0.2,0.3c0,0.1-0.1,0.3-0.1,0.5v8.3C79.1,23.4,79.1,23.5,79.1,23.6z"/>
	<path class="st0" d="M88.5,22l-0.1-6c0-0.5,0-0.9-0.1-1.2s-0.1-0.5-0.3-0.6c-0.1-0.1-0.3-0.2-0.6-0.2v0h2.1v0
		c-0.3,0-0.5,0.1-0.6,0.2c-0.1,0.1-0.2,0.3-0.3,0.6s-0.1,0.7-0.1,1.2l-0.1,8h-0.3l-6.9-9.6h0.1l0.1,7.6c0,0.5,0,0.9,0.1,1.2
		c0,0.3,0.1,0.5,0.3,0.6s0.3,0.2,0.6,0.2v0h-2.1v0c0.3,0,0.5-0.1,0.6-0.2s0.2-0.3,0.3-0.6c0-0.3,0.1-0.7,0.1-1.2l0.1-6.8
		c0-0.3,0-0.5-0.1-0.6c-0.1-0.2-0.1-0.3-0.3-0.4c-0.1-0.1-0.3-0.2-0.4-0.2v0h2.1L88.5,22z"/>
	<path class="st0" d="M90.5,16.7c0.3-0.6,0.6-1.1,1.1-1.6c0.5-0.4,1-0.7,1.6-0.9c0.6-0.2,1.2-0.3,1.9-0.3c0.9,0,1.6,0.1,2.1,0.2
		c0.5,0.1,0.8,0.3,1.1,0.4l0.1,2.3h0c-0.1-0.4-0.2-0.8-0.4-1.2c-0.2-0.4-0.4-0.7-0.7-0.9s-0.6-0.5-1-0.6c-0.4-0.1-0.8-0.2-1.2-0.2
		c-0.7,0-1.3,0.2-1.8,0.6c-0.5,0.4-0.9,1-1.2,1.7s-0.4,1.6-0.4,2.6c0,0.7,0.1,1.3,0.2,2c0.1,0.6,0.3,1.2,0.6,1.7
		c0.3,0.5,0.7,0.9,1.1,1.2s1,0.5,1.6,0.5c0.5,0,0.9-0.1,1.3-0.2c0.4-0.1,0.7-0.3,0.9-0.5v-3c0-0.2,0-0.4-0.1-0.5s-0.1-0.2-0.2-0.3
		s-0.3-0.1-0.5-0.1v0h2.8v0c-0.2,0-0.4,0.1-0.5,0.1s-0.2,0.1-0.2,0.3s-0.1,0.3-0.1,0.5V23c-0.4,0.3-0.9,0.6-1.5,0.8
		c-0.6,0.2-1.3,0.3-1.9,0.3c-0.8,0-1.5-0.1-2.1-0.4c-0.6-0.3-1.2-0.6-1.6-1.1c-0.5-0.5-0.8-1-1-1.7s-0.4-1.4-0.4-2.2
		C90.1,18.1,90.2,17.4,90.5,16.7z"/>
	<path class="st0" d="M103.4,16.7c0.3-0.6,0.6-1.1,1.1-1.6c0.5-0.4,1-0.7,1.6-0.9c0.6-0.2,1.2-0.3,1.9-0.3c0.9,0,1.6,0.1,2.1,0.2
		c0.5,0.1,0.8,0.3,1,0.4l0.1,2.3h0c-0.1-0.4-0.2-0.8-0.4-1.2c-0.2-0.4-0.4-0.7-0.7-0.9s-0.6-0.5-0.9-0.6s-0.8-0.2-1.2-0.2
		c-0.7,0-1.3,0.2-1.8,0.6c-0.5,0.4-0.9,1-1.2,1.7s-0.4,1.6-0.4,2.6c0,0.7,0.1,1.3,0.2,2c0.1,0.6,0.3,1.2,0.6,1.7s0.6,0.9,1.1,1.2
		c0.4,0.3,1,0.5,1.6,0.5c0.4,0,0.7-0.1,1.1-0.2c0.3-0.1,0.6-0.3,0.9-0.6c0.3-0.2,0.5-0.6,0.7-0.9c0.2-0.4,0.3-0.8,0.5-1.3h0
		l-0.1,2.3c-0.1,0.1-0.3,0.2-0.6,0.3c-0.3,0.1-0.6,0.2-1.1,0.3c-0.4,0.1-0.9,0.1-1.4,0.1c-0.8,0-1.4-0.1-2.1-0.4s-1.1-0.6-1.6-1.1
		c-0.4-0.5-0.8-1-1-1.7c-0.2-0.6-0.4-1.4-0.4-2.2C103,18.1,103.1,17.4,103.4,16.7z"/>
	<path class="st0" d="M112.5,17c0.2-0.6,0.6-1.2,1-1.6c0.4-0.5,0.9-0.8,1.5-1.1s1.3-0.4,2-0.4c0.6,0,1.2,0.1,1.8,0.4s1.1,0.6,1.6,1
		c0.5,0.4,0.8,1,1.1,1.6c0.3,0.6,0.4,1.3,0.4,2.1c0,0.7-0.1,1.4-0.3,2c-0.2,0.6-0.6,1.2-1,1.6c-0.4,0.5-0.9,0.8-1.5,1.1
		s-1.3,0.4-2,0.4c-0.6,0-1.2-0.1-1.8-0.4c-0.6-0.2-1.1-0.6-1.6-1c-0.5-0.4-0.8-1-1.1-1.6c-0.3-0.6-0.4-1.3-0.4-2.1
		C112.2,18.3,112.3,17.7,112.5,17z M114,21.1c0.2,0.6,0.4,1.2,0.7,1.6c0.3,0.5,0.7,0.8,1.1,1.1c0.4,0.3,0.9,0.4,1.4,0.4
		c0.8,0,1.4-0.2,1.9-0.6c0.5-0.4,0.8-1,1.1-1.8c0.2-0.8,0.3-1.6,0.3-2.6c0-0.8-0.1-1.5-0.2-2.1c-0.2-0.6-0.4-1.2-0.7-1.6
		c-0.3-0.5-0.7-0.8-1.1-1.1c-0.4-0.3-0.9-0.4-1.4-0.4c-0.8,0-1.4,0.2-1.9,0.6c-0.5,0.4-0.8,1-1.1,1.8c-0.2,0.8-0.3,1.6-0.3,2.6
		C113.7,19.7,113.8,20.4,114,21.1z"/>
	<path class="st0" d="M130.3,16.2L130.3,16.2c-0.1-0.5-0.3-1-0.5-1.3c-0.2-0.3-0.5-0.5-0.9-0.7s-0.9-0.2-1.5-0.3l-0.4,0v9
		c0,0.2,0,0.4,0.1,0.5c0,0.1,0.1,0.2,0.2,0.3c0.1,0.1,0.3,0.1,0.6,0.2v0h-3.1v0c0.3,0,0.4-0.1,0.6-0.2s0.2-0.2,0.2-0.3
		c0-0.1,0.1-0.3,0.1-0.5v-9l-0.4,0c-0.6,0-1.1,0.1-1.5,0.3s-0.7,0.4-0.9,0.7c-0.2,0.3-0.4,0.7-0.5,1.3h0l0.1-2.2h7.6L130.3,16.2z"/>
	<path class="st0" d="M138.5,16.2L138.5,16.2c-0.1-0.5-0.3-1-0.5-1.3c-0.2-0.3-0.5-0.5-0.9-0.7s-0.9-0.2-1.5-0.3l-0.4,0v9
		c0,0.2,0,0.4,0.1,0.5c0,0.1,0.1,0.2,0.2,0.3c0.1,0.1,0.3,0.1,0.6,0.2v0H133v0c0.3,0,0.4-0.1,0.6-0.2s0.2-0.2,0.2-0.3
		c0-0.1,0.1-0.3,0.1-0.5v-9l-0.4,0c-0.6,0-1.1,0.1-1.5,0.3s-0.7,0.4-0.9,0.7c-0.2,0.3-0.4,0.7-0.5,1.3h0l0.1-2.2h7.6L138.5,16.2z"/>
	<path class="st0" d="M144.9,23.4c0.1,0.2,0.2,0.4,0.4,0.4c0.1,0.1,0.3,0.2,0.5,0.2v0h-3.3v0c0.2,0,0.4-0.1,0.5-0.2s0.2-0.3,0.2-0.5
		c0-0.2-0.1-0.5-0.2-0.8l-2.4-6.9l-2.1,6.3c-0.2,0.5-0.3,0.9-0.3,1.2c0,0.3,0,0.5,0.1,0.6c0.1,0.1,0.3,0.2,0.6,0.3v0h-2.1v0
		c0.2,0,0.4-0.1,0.5-0.2c0.1-0.1,0.3-0.3,0.4-0.6c0.1-0.3,0.3-0.7,0.5-1.2l2.9-8h0.2l3.1,8.6C144.6,22.9,144.7,23.2,144.9,23.4z
		 M139,20.3h3.9l0,0.1L139,20.3L139,20.3z"/>
	<path class="st0" d="M145.6,16.7c0.3-0.6,0.6-1.1,1.1-1.6c0.5-0.4,1-0.7,1.6-0.9c0.6-0.2,1.2-0.3,1.9-0.3c0.9,0,1.6,0.1,2.1,0.2
		c0.5,0.1,0.8,0.3,1.1,0.4l0.1,2.3h0c-0.1-0.4-0.2-0.8-0.4-1.2c-0.2-0.4-0.4-0.7-0.7-0.9s-0.6-0.5-1-0.6c-0.4-0.1-0.8-0.2-1.2-0.2
		c-0.7,0-1.3,0.2-1.8,0.6c-0.5,0.4-0.9,1-1.2,1.7s-0.4,1.6-0.4,2.6c0,0.7,0.1,1.3,0.2,2c0.1,0.6,0.3,1.2,0.6,1.7
		c0.3,0.5,0.7,0.9,1.1,1.2s1,0.5,1.6,0.5c0.5,0,0.9-0.1,1.3-0.2c0.4-0.1,0.7-0.3,0.9-0.5v-3c0-0.2,0-0.4-0.1-0.5s-0.1-0.2-0.2-0.3
		s-0.3-0.1-0.5-0.1v0h2.8v0c-0.2,0-0.4,0.1-0.5,0.1s-0.2,0.1-0.2,0.3s-0.1,0.3-0.1,0.5V23c-0.4,0.3-0.9,0.6-1.5,0.8
		c-0.6,0.2-1.3,0.3-1.9,0.3c-0.8,0-1.5-0.1-2.1-0.4c-0.6-0.3-1.2-0.6-1.6-1.1c-0.5-0.5-0.8-1-1-1.7s-0.4-1.4-0.4-2.2
		C145.2,18.1,145.3,17.4,145.6,16.7z"/>
	<path class="st0" d="M161.6,16.2L161.6,16.2c-0.1-0.5-0.3-1-0.6-1.3c-0.2-0.3-0.6-0.5-1-0.6c-0.4-0.1-1-0.2-1.8-0.3l-1.1-0.1v4.9
		l1.9-0.1c0.4,0,0.7-0.1,0.9-0.2s0.3-0.2,0.4-0.4c0.1-0.2,0.2-0.4,0.2-0.7h0v2.8h0c-0.1-0.3-0.1-0.5-0.2-0.7
		c-0.1-0.2-0.2-0.3-0.4-0.4S159.4,19,159,19l-1.9-0.1v5.1l1.7-0.1c0.5,0,1-0.1,1.4-0.2c0.4-0.1,0.7-0.2,0.9-0.4
		c0.2-0.2,0.4-0.4,0.6-0.7c0.1-0.3,0.3-0.7,0.4-1.1h0l-0.2,2.5h-7v0c0.2-0.1,0.4-0.1,0.5-0.2c0.1-0.1,0.2-0.1,0.2-0.3
		c0-0.1,0.1-0.3,0.1-0.5v-8.3c0-0.2,0-0.4-0.1-0.5c0-0.1-0.1-0.2-0.2-0.3c-0.1-0.1-0.3-0.1-0.5-0.2v0h6.6L161.6,16.2z"/>
</g>
</svg>
