<?xml version="1.0" encoding="utf-8"?>
<!-- Generator: Adobe Illustrator 27.5.0, SVG Export Plug-In . SVG Version: 6.00 Build 0)  -->
<svg version="1.1" id="Layer_1" xmlns="http://www.w3.org/2000/svg" xmlns:xlink="http://www.w3.org/1999/xlink" x="0px" y="0px"
	 viewBox="0 0 190 42" style="enable-background:new 0 0 190 42;" xml:space="preserve">
<g>
	<path d="M41.1,21.3c-0.3,0.4-0.6,0.6-1.1,0.9c-0.4,0.2-0.9,0.4-1.5,0.5s-1.1,0.2-1.6,0.2h-3v0c0.2-0.1,0.4-0.1,0.5-0.2
		c0.1-0.1,0.2-0.1,0.2-0.3c0-0.1,0.1-0.3,0.1-0.5v-8.3c0-0.2,0-0.4-0.1-0.5c0-0.1-0.1-0.2-0.2-0.3c-0.1-0.1-0.3-0.1-0.5-0.2v0h3
		c0.8,0,1.5,0.1,2.2,0.3c0.6,0.2,1.1,0.4,1.5,0.8c0.3,0.3,0.5,0.8,0.5,1.3c0,0.5-0.2,0.9-0.5,1.3c-0.3,0.3-0.7,0.6-1.2,0.8
		s-1,0.3-1.6,0.3c0.7,0,1.4,0.1,2,0.3c0.6,0.2,1,0.5,1.3,0.9s0.5,0.8,0.5,1.4C41.5,20.5,41.4,21,41.1,21.3z M39.4,14
		c-0.2-0.4-0.5-0.6-0.9-0.9s-1-0.3-1.7-0.4l-0.7,0v4.7l1.3,0c0.7,0,1.2-0.2,1.6-0.6c0.4-0.4,0.6-0.9,0.6-1.7
		C39.6,14.8,39.5,14.4,39.4,14z M39.7,18.8c-0.2-0.4-0.5-0.7-0.9-0.9c-0.4-0.2-0.8-0.4-1.4-0.4l-1.3,0v5.4l0.7,0
		c1,0,1.8-0.3,2.4-0.8c0.5-0.5,0.8-1.1,0.8-2C40,19.6,39.9,19.2,39.7,18.8z"/>
	<path d="M44.7,22.4c0,0.1,0.1,0.2,0.2,0.3c0.1,0.1,0.3,0.1,0.5,0.2v0h-3v0c0.2-0.1,0.4-0.1,0.5-0.2c0.1-0.1,0.2-0.1,0.2-0.3
		c0-0.1,0.1-0.3,0.1-0.5v-8.3c0-0.2,0-0.4-0.1-0.5c0-0.1-0.1-0.2-0.2-0.3c-0.1-0.1-0.3-0.1-0.5-0.2v0h3v0c-0.2,0-0.4,0.1-0.5,0.2
		c-0.1,0.1-0.2,0.1-0.2,0.3c0,0.1-0.1,0.3-0.1,0.5v8.3C44.6,22.1,44.7,22.3,44.7,22.4z"/>
	<path d="M53,16.5c-0.2,0.3-0.4,0.6-0.8,0.8c-0.3,0.2-0.7,0.4-1.1,0.5v-0.2l1.7,3.3c0.3,0.5,0.5,0.9,0.7,1.2
		c0.2,0.3,0.3,0.4,0.4,0.5c0.1,0.1,0.3,0.2,0.4,0.2v0h-2L49.9,18h-1.5v4c0,0.2,0,0.3,0.1,0.4c0,0.1,0.1,0.2,0.2,0.2
		c0.1,0.1,0.3,0.1,0.5,0.2v0h-3v0c0.2-0.1,0.4-0.1,0.5-0.2c0.1-0.1,0.2-0.2,0.2-0.3c0-0.1,0.1-0.3,0.1-0.5v-8.3c0-0.2,0-0.4-0.1-0.5
		c0-0.1-0.1-0.2-0.2-0.3c-0.1-0.1-0.3-0.1-0.5-0.1v0h3c0.9,0,1.7,0.1,2.3,0.3s1.1,0.5,1.4,0.9c0.3,0.4,0.5,0.9,0.5,1.4
		C53.3,15.8,53.2,16.2,53,16.5z M51.5,14.2c-0.2-0.4-0.5-0.7-0.9-1c-0.4-0.3-1-0.4-1.7-0.4l-0.7,0V18l0.9,0c0.7,0,1.4-0.2,1.8-0.7
		c0.5-0.4,0.7-1,0.7-1.8C51.8,15,51.7,14.6,51.5,14.2z"/>
	<path d="M63.3,19.9c-0.3,0.7-0.8,1.2-1.4,1.6c-0.6,0.4-1.3,0.7-2,1c-0.8,0.2-1.6,0.3-2.5,0.3h-2.8v0c0.2-0.1,0.4-0.1,0.5-0.2
		c0.1-0.1,0.2-0.1,0.2-0.3c0-0.1,0.1-0.3,0.1-0.5v-8.3c0-0.2,0-0.4-0.1-0.5c0-0.1-0.1-0.2-0.2-0.3c-0.1-0.1-0.3-0.1-0.5-0.2v0h2.8
		c1.3,0,2.4,0.2,3.4,0.5c1,0.4,1.7,0.9,2.2,1.6s0.8,1.6,0.8,2.7C63.8,18.5,63.6,19.3,63.3,19.9z M61.6,15.2
		c-0.4-0.7-0.9-1.3-1.7-1.7s-1.6-0.6-2.7-0.7l-0.4,0v10.1l0.4,0c1.1,0,2-0.3,2.7-0.7c0.7-0.4,1.3-1,1.7-1.7c0.4-0.7,0.6-1.6,0.6-2.7
		C62.2,16.8,62,15.9,61.6,15.2z"/>
	<path d="M64.1,13.4c-0.1-0.2-0.3-0.3-0.4-0.4c-0.1-0.1-0.3-0.1-0.4-0.2v0h3.3v0c-0.2,0-0.4,0.1-0.5,0.2c-0.1,0.1-0.2,0.3-0.2,0.5
		c0,0.2,0.1,0.5,0.2,0.8l2.1,6.8l1.9-6.5c0.1-0.5,0.2-0.8,0.2-1c0-0.2-0.1-0.4-0.2-0.5c-0.1-0.1-0.3-0.2-0.6-0.2v0h3v0
		c-0.2,0-0.4,0.1-0.5,0.2c-0.1,0.1-0.1,0.2-0.1,0.4s0.1,0.5,0.2,0.9l2,6.7l1.9-6.2c0.1-0.5,0.2-0.9,0.3-1.2c0-0.3,0-0.5-0.1-0.6
		c-0.1-0.1-0.3-0.2-0.7-0.3v0h2.1v0c-0.2,0-0.4,0.1-0.5,0.2s-0.3,0.3-0.4,0.6c-0.1,0.3-0.3,0.7-0.5,1.2l-2.7,8h-0.2l-2.9-9.3h0.2
		l-3,9.3h-0.2l-2.8-8.6C64.4,13.9,64.3,13.6,64.1,13.4z"/>
	<path d="M80,22.4c0,0.1,0.1,0.2,0.2,0.3c0.1,0.1,0.3,0.1,0.5,0.2v0h-3v0c0.2-0.1,0.4-0.1,0.5-0.2c0.1-0.1,0.2-0.1,0.2-0.3
		c0-0.1,0.1-0.3,0.1-0.5v-8.3c0-0.2,0-0.4-0.1-0.5c0-0.1-0.1-0.2-0.2-0.3c-0.1-0.1-0.3-0.1-0.5-0.2v0h3v0c-0.2,0-0.4,0.1-0.5,0.2
		c-0.1,0.1-0.2,0.1-0.2,0.3c0,0.1-0.1,0.3-0.1,0.5v8.3C80,22.1,80,22.3,80,22.4z"/>
	<path d="M89.4,20.8l-0.1-6c0-0.5,0-0.9-0.1-1.2S89,13.1,88.9,13c-0.1-0.1-0.3-0.2-0.6-0.2v0h2.1v0c-0.3,0-0.5,0.1-0.6,0.2
		c-0.1,0.1-0.2,0.3-0.3,0.6s-0.1,0.7-0.1,1.2l-0.1,8h-0.3l-6.9-9.6h0.1l0.1,7.6c0,0.5,0,0.9,0.1,1.2c0,0.3,0.1,0.5,0.3,0.6
		s0.3,0.2,0.6,0.2v0h-2.1v0c0.3,0,0.5-0.1,0.6-0.2s0.2-0.3,0.3-0.6c0-0.3,0.1-0.7,0.1-1.2l0.1-6.8c0-0.3,0-0.5-0.1-0.6
		c-0.1-0.2-0.1-0.3-0.3-0.4c-0.1-0.1-0.3-0.2-0.4-0.2v0h2.1L89.4,20.8z"/>
	<path d="M91.3,15.5c0.3-0.6,0.6-1.1,1.1-1.6c0.5-0.4,1-0.7,1.6-0.9c0.6-0.2,1.2-0.3,1.9-0.3c0.9,0,1.6,0.1,2.1,0.2
		c0.5,0.1,0.8,0.3,1.1,0.4l0.1,2.3h0c-0.1-0.4-0.2-0.8-0.4-1.2c-0.2-0.4-0.4-0.7-0.7-0.9s-0.6-0.5-1-0.6c-0.4-0.1-0.8-0.2-1.2-0.2
		c-0.7,0-1.3,0.2-1.8,0.6c-0.5,0.4-0.9,1-1.2,1.7s-0.4,1.6-0.4,2.6c0,0.7,0.1,1.3,0.2,2c0.1,0.6,0.3,1.2,0.6,1.7
		c0.3,0.5,0.7,0.9,1.1,1.2s1,0.5,1.6,0.5c0.5,0,0.9-0.1,1.3-0.2c0.4-0.1,0.7-0.3,0.9-0.5v-3c0-0.2,0-0.4-0.1-0.5s-0.1-0.2-0.2-0.3
		s-0.3-0.1-0.5-0.1v0h2.8v0c-0.2,0-0.4,0.1-0.5,0.1s-0.2,0.1-0.2,0.3s-0.1,0.3-0.1,0.5v2.6c-0.4,0.3-0.9,0.6-1.5,0.8
		c-0.6,0.2-1.3,0.3-1.9,0.3c-0.8,0-1.5-0.1-2.1-0.4c-0.6-0.3-1.2-0.6-1.6-1.1c-0.5-0.5-0.8-1-1-1.7S91,18.5,91,17.7
		C91,16.8,91.1,16.1,91.3,15.5z"/>
	<path d="M104.3,15.5c0.3-0.6,0.6-1.1,1.1-1.6c0.5-0.4,1-0.7,1.6-0.9c0.6-0.2,1.2-0.3,1.9-0.3c0.9,0,1.6,0.1,2.1,0.2
		c0.5,0.1,0.8,0.3,1,0.4l0.1,2.3h0c-0.1-0.4-0.2-0.8-0.4-1.2c-0.2-0.4-0.4-0.7-0.7-0.9s-0.6-0.5-0.9-0.6s-0.8-0.2-1.2-0.2
		c-0.7,0-1.3,0.2-1.8,0.6c-0.5,0.4-0.9,1-1.2,1.7s-0.4,1.6-0.4,2.6c0,0.7,0.1,1.3,0.2,2c0.1,0.6,0.3,1.2,0.6,1.7s0.6,0.9,1.1,1.2
		c0.4,0.3,1,0.5,1.6,0.5c0.4,0,0.7-0.1,1.1-0.2c0.3-0.1,0.6-0.3,0.9-0.6c0.3-0.2,0.5-0.6,0.7-0.9c0.2-0.4,0.3-0.8,0.5-1.3h0
		l-0.1,2.3c-0.1,0.1-0.3,0.2-0.6,0.3c-0.3,0.1-0.6,0.2-1.1,0.3c-0.4,0.1-0.9,0.1-1.4,0.1c-0.8,0-1.4-0.1-2.1-0.4s-1.1-0.6-1.6-1.1
		c-0.4-0.5-0.8-1-1-1.7c-0.2-0.6-0.4-1.4-0.4-2.2C103.9,16.8,104,16.1,104.3,15.5z"/>
	<path d="M113.4,15.8c0.2-0.6,0.6-1.2,1-1.6c0.4-0.5,0.9-0.8,1.5-1.1s1.3-0.4,2-0.4c0.6,0,1.2,0.1,1.8,0.4s1.1,0.6,1.6,1
		c0.5,0.4,0.8,1,1.1,1.6c0.3,0.6,0.4,1.3,0.4,2.1c0,0.7-0.1,1.4-0.3,2c-0.2,0.6-0.6,1.2-1,1.6c-0.4,0.5-0.9,0.8-1.5,1.1
		s-1.3,0.4-2,0.4c-0.6,0-1.2-0.1-1.8-0.4c-0.6-0.2-1.1-0.6-1.6-1c-0.5-0.4-0.8-1-1.1-1.6c-0.3-0.6-0.4-1.3-0.4-2.1
		C113.1,17.1,113.2,16.4,113.4,15.8z M114.9,19.8c0.2,0.6,0.4,1.2,0.7,1.6c0.3,0.5,0.7,0.8,1.1,1.1c0.4,0.3,0.9,0.4,1.4,0.4
		c0.8,0,1.4-0.2,1.9-0.6c0.5-0.4,0.8-1,1.1-1.8c0.2-0.8,0.3-1.6,0.3-2.6c0-0.8-0.1-1.5-0.2-2.1c-0.2-0.6-0.4-1.2-0.7-1.6
		c-0.3-0.5-0.7-0.8-1.1-1.1c-0.4-0.3-0.9-0.4-1.4-0.4c-0.8,0-1.4,0.2-1.9,0.6c-0.5,0.4-0.8,1-1.1,1.8c-0.2,0.8-0.3,1.6-0.3,2.6
		C114.6,18.5,114.7,19.2,114.9,19.8z"/>
	<path d="M131.2,15L131.2,15c-0.1-0.5-0.3-1-0.5-1.3c-0.2-0.3-0.5-0.5-0.9-0.7s-0.9-0.2-1.5-0.3l-0.4,0v9c0,0.2,0,0.4,0.1,0.5
		c0,0.1,0.1,0.2,0.2,0.3c0.1,0.1,0.3,0.1,0.6,0.2v0h-3.1v0c0.3,0,0.4-0.1,0.6-0.2s0.2-0.2,0.2-0.3c0-0.1,0.1-0.3,0.1-0.5v-9l-0.4,0
		c-0.6,0-1.1,0.1-1.5,0.3s-0.7,0.4-0.9,0.7c-0.2,0.3-0.4,0.7-0.5,1.3h0l0.1-2.2h7.6L131.2,15z"/>
	<path d="M139.4,15L139.4,15c-0.1-0.5-0.3-1-0.5-1.3c-0.2-0.3-0.5-0.5-0.9-0.7s-0.9-0.2-1.5-0.3l-0.4,0v9c0,0.2,0,0.4,0.1,0.5
		c0,0.1,0.1,0.2,0.2,0.3c0.1,0.1,0.3,0.1,0.6,0.2v0h-3.1v0c0.3,0,0.4-0.1,0.6-0.2s0.2-0.2,0.2-0.3c0-0.1,0.1-0.3,0.1-0.5v-9l-0.4,0
		c-0.6,0-1.1,0.1-1.5,0.3s-0.7,0.4-0.9,0.7c-0.2,0.3-0.4,0.7-0.5,1.3h0l0.1-2.2h7.6L139.4,15z"/>
	<path d="M145.7,22.2c0.1,0.2,0.2,0.4,0.4,0.4c0.1,0.1,0.3,0.2,0.5,0.2v0h-3.3v0c0.2,0,0.4-0.1,0.5-0.2s0.2-0.3,0.2-0.5
		c0-0.2-0.1-0.5-0.2-0.8l-2.4-6.9l-2.1,6.3c-0.2,0.5-0.3,0.9-0.3,1.2c0,0.3,0,0.5,0.1,0.6c0.1,0.1,0.3,0.2,0.6,0.3v0h-2.1v0
		c0.2,0,0.4-0.1,0.5-0.2c0.1-0.1,0.3-0.3,0.4-0.6c0.1-0.3,0.3-0.7,0.5-1.2l2.9-8h0.2l3.1,8.6C145.5,21.7,145.6,22,145.7,22.2z
		 M139.9,19h3.9l0,0.1L139.9,19L139.9,19z"/>
	<path d="M146.5,15.5c0.3-0.6,0.6-1.1,1.1-1.6c0.5-0.4,1-0.7,1.6-0.9c0.6-0.2,1.2-0.3,1.9-0.3c0.9,0,1.6,0.1,2.1,0.2
		c0.5,0.1,0.8,0.3,1.1,0.4l0.1,2.3h0c-0.1-0.4-0.2-0.8-0.4-1.2c-0.2-0.4-0.4-0.7-0.7-0.9s-0.6-0.5-1-0.6c-0.4-0.1-0.8-0.2-1.2-0.2
		c-0.7,0-1.3,0.2-1.8,0.6c-0.5,0.4-0.9,1-1.2,1.7s-0.4,1.6-0.4,2.6c0,0.7,0.1,1.3,0.2,2c0.1,0.6,0.3,1.2,0.6,1.7
		c0.3,0.5,0.7,0.9,1.1,1.2s1,0.5,1.6,0.5c0.5,0,0.9-0.1,1.3-0.2c0.4-0.1,0.7-0.3,0.9-0.5v-3c0-0.2,0-0.4-0.1-0.5s-0.1-0.2-0.2-0.3
		s-0.3-0.1-0.5-0.1v0h2.8v0c-0.2,0-0.4,0.1-0.5,0.1s-0.2,0.1-0.2,0.3s-0.1,0.3-0.1,0.5v2.6c-0.4,0.3-0.9,0.6-1.5,0.8
		c-0.6,0.2-1.3,0.3-1.9,0.3c-0.8,0-1.5-0.1-2.1-0.4c-0.6-0.3-1.2-0.6-1.6-1.1c-0.5-0.5-0.8-1-1-1.7s-0.4-1.4-0.4-2.2
		C146.1,16.8,146.2,16.1,146.5,15.5z"/>
	<path d="M162.5,15L162.5,15c-0.1-0.5-0.3-1-0.6-1.3c-0.2-0.3-0.6-0.5-1-0.6c-0.4-0.1-1-0.2-1.8-0.3l-1.1-0.1v4.9l1.9-0.1
		c0.4,0,0.7-0.1,0.9-0.2s0.3-0.2,0.4-0.4c0.1-0.2,0.2-0.4,0.2-0.7h0v2.8h0c-0.1-0.3-0.1-0.5-0.2-0.7c-0.1-0.2-0.2-0.3-0.4-0.4
		s-0.5-0.2-0.9-0.2l-1.9-0.1v5.1l1.7-0.1c0.5,0,1-0.1,1.4-0.2c0.4-0.1,0.7-0.2,0.9-0.4c0.2-0.2,0.4-0.4,0.6-0.7
		c0.1-0.3,0.3-0.7,0.4-1.1h0l-0.2,2.5h-7v0c0.2-0.1,0.4-0.1,0.5-0.2c0.1-0.1,0.2-0.1,0.2-0.3c0-0.1,0.1-0.3,0.1-0.5v-8.3
		c0-0.2,0-0.4-0.1-0.5c0-0.1-0.1-0.2-0.2-0.3c-0.1-0.1-0.3-0.1-0.5-0.2v0h6.6L162.5,15z"/>
</g>
</svg>
